<?xml version="1.0" encoding="UTF-8" standalone="no"?>
<!-- Created with Inkscape (http://www.inkscape.org/) -->

<svg
   xmlns:dc="http://purl.org/dc/elements/1.1/"
   xmlns:cc="http://creativecommons.org/ns#"
   xmlns:rdf="http://www.w3.org/1999/02/22-rdf-syntax-ns#"
   xmlns:svg="http://www.w3.org/2000/svg"
   xmlns="http://www.w3.org/2000/svg"
   xmlns:sodipodi="http://sodipodi.sourceforge.net/DTD/sodipodi-0.dtd"
   xmlns:inkscape="http://www.inkscape.org/namespaces/inkscape"
   width="120"
   height="110"
   viewBox="0 0 31.749999 29.104167"
   version="1.1"
   id="svg8"
   inkscape:version="0.92.5 (2060ec1f9f, 2020-04-08)"
   sodipodi:docname="purrBnBLogo.svg">
  <defs
     id="defs2" />
  <sodipodi:namedview
     id="base"
     pagecolor="#ffffff"
     bordercolor="#666666"
     borderopacity="1.0"
     inkscape:pageopacity="0.0"
     inkscape:pageshadow="2"
     inkscape:zoom="2.8"
     inkscape:cx="15.727284"
     inkscape:cy="82.48409"
     inkscape:document-units="px"
     inkscape:current-layer="layer1"
     showgrid="false"
     units="px"
     inkscape:window-width="1920"
     inkscape:window-height="1080"
     inkscape:window-x="0"
     inkscape:window-y="-30"
     inkscape:window-maximized="1" />
  <metadata
     id="metadata5">
    <rdf:RDF>
      <cc:Work
         rdf:about="">
        <dc:format>image/svg+xml</dc:format>
        <dc:type
           rdf:resource="http://purl.org/dc/dcmitype/StillImage" />
        <dc:title></dc:title>
      </cc:Work>
    </rdf:RDF>
  </metadata>
  <g
     inkscape:label="Layer 1"
     inkscape:groupmode="layer"
     id="layer1"
     transform="translate(0,-267.89582)">
    <path
       style="fill:#000000;stroke-width:0.2661286"
       d="m 22.34683,295.20733 c -0.95831,-0.99382 -2.0176,-1.75563 -3.17257,-2.28164 -2.19338,-0.99895 -3.50742,-0.95712 -3.50742,-2.25333 0.31851,-2.1953 1.99448,-2.65885 3.71412,-3.44844 2.63892,-1.34147 6.47241,-1.23124 7.28098,0.82409 0.80858,2.05533 0.7102,6.58104 0.34632,7.62954 -0.29344,0.84548 -1.20646,1.32244 -2.53147,1.32244 -0.81334,0 -0.90714,-0.52452 -2.12996,-1.79266 z m 6.09849,-1.24215 c -0.71804,-1.72613 0.42822,-3.82376 1.78145,-3.50354 1.48221,0.35074 1.93777,1.79565 1.12254,3.39402 -0.53312,1.04528 -0.76798,1.26797 -1.72193,1.27321 -0.5929,0.003 -0.88885,-0.4588 -1.18206,-1.16369 z m -0.47965,-5.07862 c -2.12176,-2.80573 0.89654,-5.97157 2.80981,-3.68888 1.54041,1.96279 -0.8633,5.11853 -2.80981,3.68888 z m -10.73269,-3.34609 c -0.59406,-0.37733 -0.49879,-2.24327 0.1599,-3.1319 1.5979,-2.1557 4.36701,-0.82604 3.53748,1.69861 -0.44977,1.36886 -2.52952,2.17507 -3.69738,1.43329 z m 6.36692,-0.18894 c -1.40423,-0.52364 -1.41877,-2.19221 -0.0312,-3.58589 1.51456,-1.5213 3.2192,-1.24995 3.61847,0.57598 0.35613,1.6287 -1.99682,3.60298 -3.58723,3.00991 z M 4.9916997,283.41262 c -0.91197,-0.91601 -0.9385,-1.36067 -0.23886,-4.00326 0.45812,-1.4266 0.71496,-2.91195 1.47833,-4.01051 1.113,-1.23744 2.15254,-1.52667 3.8503003,-1.07131 1.35167,0.36253 5.72421,3.05622 6.09713,3.75611 0.51189,0.96073 0.29173,2.3754 -0.49223,3.16284 -0.62988,0.63269 -1.24639,0.37564 -2.92098,0.53741 -1.52097,0.14692 -2.35583,0.40085 -3.6142103,1.09926 -2.10552,1.16857 -3.08933,1.60436 -4.15948,0.52946 z m -3.9889,-5.64982 C 0.32431969,277.03326 -3.1135198e-7,276.70394 -3.1135198e-7,275.24891 c 0,-1.82215 0.50824000135198,-2.25884 1.57741001135198,-2.25884 1.02974,0 2.05117,0.9349 2.386,2.18387 0.35127,1.31032 0.17635,2.15197 -0.59781,2.8764 -0.80768,0.75582 -1.46711,0.67557 -2.3628,-0.28754 z M 14.19735,274.79042 c -0.91194,-1.41616 -0.75922,-2.79138 0.37789,-3.40265 0.74791,-0.40204 1.94239,0.28624 2.48313,1.43082 0.55671,1.17839 0.29295,2.00811 -0.33176,2.48736 -0.62471,0.47924 -1.60777,0.45044 -2.52926,-0.51553 z m -9.4197303,-1.43513 c -1.23979,-0.87224 -1.57197,-2.86363 -0.75049,-4.49936 0.61975,-1.23411 1.97042,-1.28574 2.95294,-0.1129 0.54992,0.65645 0.68745,1.1028 0.68745,2.23114 0,2.35163 -1.35036,3.46425 -2.8899,2.38112 z m 5.3691303,-0.36178 c -1.5187503,-1.19996 -1.5809203,-3.32428 -0.4690203,-4.55836 1.2071803,-1.33985 3.3005803,0.19578 3.3005803,2.42117 0,1.01124 -0.26281,2.19085 -0.93684,2.55318 -0.38271,0.20573 -1.36077,0.006 -1.89472,-0.41599 z"
       id="path828"
       inkscape:connector-curvature="0"
       sodipodi:nodetypes="cccczcscccsccccccscccccccccccccssccsssccccszcccsscccscc"
       inkscape:export-xdpi="96"
       inkscape:export-ydpi="96" />
  </g>
</svg>
